 <svg  version="1.0" xmlns="http://www.w3.org/2000/svg"  width="100.000000pt" height="100.000000pt" viewBox="0 0 100.000000 100.000000"  preserveAspectRatio="xMidYMid meet">  <g transform="translate(0.000000,100.000000) scale(0.100000,-0.100000)" fill="#fecf67" stroke="none"> <path d="M464 946 c-40 -18 -72 -59 -80 -103 -12 -66 51 -157 185 -268 l71 -57 71 57 c135 111 197 202 185 268 -21 111 -169 154 -236 70 l-21 -27 -16 23 c-18 26 -71 51 -105 51 -13 -1 -37 -7 -54 -14z m129 -46 l48 -30 37 24 c20 14 49 28 63 31 41 10 96 -18 116 -59 27 -58 5 -104 -97 -207 -48 -47 -96 -88 -108 -91 -43 -12 -207 146 -232 223 -12 34 -11 44 3 75 17 35 61 63 103 64 11 0 41 -13 67 -30z"/> <path d="M795 350 l-110 -110 -106 0 c-93 0 -108 2 -124 20 -21 23 -21 23 75 40 78 14 110 32 110 64 0 50 -23 56 -201 56 -105 -1 -174 -5 -191 -13 -15 -7 -72 -56 -126 -109 l-99 -98 90 -89 89 -89 38 39 37 39 208 0 208 0 144 142 c95 95 143 149 143 164 0 25 -29 54 -56 54 -11 0 -65 -46 -129 -110z m145 52 c0 -11 -47 -66 -104 -124 -161 -163 -126 -148 -355 -148 l-197 0 -42 -31 c-36 -27 -45 -29 -60 -18 -29 22 -112 109 -112 118 0 14 151 161 182 177 22 11 63 14 185 12 150 -3 158 -4 158 -23 0 -16 -12 -23 -68 -36 -37 -9 -74 -22 -82 -29 -23 -19 -18 -46 11 -69 23 -18 41 -21 128 -21 l102 0 109 105 c106 102 145 125 145 87z"/> </g> </svg> 